<?xml version="1.0" encoding="UTF-8" standalone="no"?>
<svg
   viewBox="0 0 81.9 71.52"
   version="1.1"
   id="svg8"
   sodipodi:docname="logo.svg"
   xml:space="preserve"
   inkscape:version="1.3.2 (1:1.3.2+202311252150+091e20ef0f)"
   xmlns:inkscape="http://www.inkscape.org/namespaces/inkscape"
   xmlns:sodipodi="http://sodipodi.sourceforge.net/DTD/sodipodi-0.dtd"
   xmlns="http://www.w3.org/2000/svg"
   xmlns:svg="http://www.w3.org/2000/svg"><sodipodi:namedview
     id="namedview8"
     pagecolor="#ffffff"
     bordercolor="#666666"
     borderopacity="1.0"
     inkscape:showpageshadow="2"
     inkscape:pageopacity="0.0"
     inkscape:pagecheckerboard="0"
     inkscape:deskcolor="#d1d1d1"
     inkscape:zoom="16.442954"
     inkscape:cx="40.929385"
     inkscape:cy="34.117957"
     inkscape:window-width="3370"
     inkscape:window-height="1376"
     inkscape:window-x="70"
     inkscape:window-y="27"
     inkscape:window-maximized="1"
     inkscape:current-layer="layer2" /><defs
     id="defs2"><style
       id="style1">.cls-1{fill:#84aff1;}.cls-2{fill:#3865ab;}.cls-3{fill:url(#linear-gradient);}</style><linearGradient
       id="linear-gradient"
       x1="42.95"
       y1="16.88"
       x2="81.9"
       y2="16.88"
       gradientUnits="userSpaceOnUse"><stop
         offset="0"
         stop-color="#f2cc0c"
         id="stop1" /><stop
         offset="1"
         stop-color="#ff9830"
         id="stop2" /></linearGradient></defs><path
     style="display:inline;fill:#ffcc00;stroke-width:0.638134"
     d="M 7.2462294,58.184052 V 47.03474 H 18.638095 30.029963 V 58.184052 69.333359 H 18.638095 7.2462294 Z m 19.5289166,0 v -7.98757 h -8.137051 -8.137047 v 7.98757 7.987565 h 8.137047 8.137051 z m -13.019281,0.0832 V 53.52464 h 4.88223 4.882232 v 4.742612 4.742623 h -4.882232 -4.88223 z m 19.528916,7.904366 v -3.161741 h 1.627406 1.627414 v 1.580864 1.580879 h 1.71306 1.713068 v -1.574627 -1.574635 l 1.584582,-0.04785 1.584585,-0.04785 0.04924,-1.539262 0.04927,-1.539276 h 1.62098 1.620984 v -3.161743 -3.161741 h 3.254817 3.25482 v 1.497664 1.497673 h -1.627415 -1.627405 v 1.66407 1.664077 h 1.627405 1.627415 v -1.58087 -1.580873 h 1.627408 1.627408 v 3.161743 3.161751 h -1.627408 -1.627408 v 1.580872 1.58087 h 1.627408 1.627408 v 1.58087 1.58087 h -4.882225 -4.882222 v -1.58087 -1.580872 H 44.76231 43.049251 v 1.580872 1.58087 h -4.882229 -4.882231 z m 16.445404,-1.580879 v -1.580862 h -1.62741 -1.627405 v 1.580864 1.580879 h 1.627405 1.62741 z m 9.76446,3.161742 v -1.580863 h 1.627407 1.627406 v 1.580863 1.580879 h -1.627406 -1.627407 z m 9.764448,0 v -1.580863 h 1.627407 1.627407 v 1.580863 1.580879 H 70.8865 69.259093 Z m -9.764448,-9.568428 v -4.82582 H 57.86723 56.239823 v -1.49767 -1.497674 h 1.627407 1.627415 V 48.698815 47.034738 H 57.86723 56.239823 v 1.580872 1.58087 h -1.627406 -1.627416 v -1.58087 -1.580872 h 1.627416 1.627406 v -1.580871 -1.580872 h -1.627406 -1.627416 v -3.16175 -3.161743 h 1.627416 1.627406 v 1.580879 1.580864 h 1.627407 1.627415 v -1.580864 -1.580879 h 3.254813 3.254822 v -1.580874 -1.580866 h 1.627407 1.627406 v 1.580866 1.580874 H 70.8865 72.513907 V 34.387764 31.226016 H 69.259093 66.00428 v -1.58087 -1.580873 h 3.254813 3.254814 v 1.580873 1.58087 h 1.627415 1.627414 v 4.742614 4.742617 H 72.513907 69.259093 V 39.130383 37.549504 H 67.631687 66.00428 v 3.161743 3.16175 h -1.627415 -1.627407 v -1.580879 -1.580871 h -1.627406 -1.627407 v 3.16175 3.161743 h 6.503203 6.503213 l 0.04923,-1.539268 0.04931,-1.539276 1.584582,-0.04785 1.584591,-0.04785 v 1.587118 1.587107 H 74.141357 72.51395 v 1.578289 1.578274 l -4.839404,0.04425 -4.839397,0.04425 v 1.58087 1.580872 l 1.584582,0.04785 1.584584,0.04785 v 1.485181 1.485183 l -1.584584,0.04785 -1.584582,0.04785 -0.04647,3.203345 -0.04654,3.203348 h -1.623714 -1.623707 z m 6.509635,3.244942 v -1.580871 h 1.627407 1.627406 v 1.580871 1.58088 H 67.631687 66.00428 Z m 6.623837,1.46994 c -0.06277,-0.06103 -0.114204,-1.521254 -0.114204,-3.24495 V 56.519976 H 70.886506 69.259099 V 55.022304 53.52464 h 3.254814 3.254829 v 4.742612 4.742623 h -1.513211 c -0.832261,0 -1.56459,-0.04999 -1.627408,-0.11095 z M 33.284781,58.267251 v -1.58087 h 1.627406 1.627414 v -1.580872 -1.58087 h 3.254816 3.254825 v 1.491427 1.49142 l -1.584583,0.04785 -1.584584,0.04785 -0.04904,1.622473 -0.04903,1.622475 H 36.53339 33.284776 Z m 0,-15.975133 v -7.904354 h -1.62741 -1.627408 v 1.580866 1.580874 h -1.62741 -1.627407 v 1.580879 1.580864 h 1.627407 1.62741 v 1.580871 1.580879 h -1.62741 -1.627407 v -1.580879 -1.580871 h -1.627414 -1.627405 v 1.580871 1.580879 H 17.010685 10.501048 V 42.292118 40.711247 H 8.8736378 7.2462294 v -1.580864 -1.580879 h 1.6274084 1.6274102 v 1.580879 1.580864 h 1.627409 1.627408 v -1.580864 -1.580879 h 1.627411 1.627409 V 35.96863 34.387764 h 1.62741 1.627407 v -1.580872 -1.580876 h -1.627407 -1.62741 v -1.58087 -1.580873 h 1.62741 1.627407 v 1.580873 1.58087 h 1.627415 1.62741 v 1.580876 1.580872 h 3.254819 3.254817 v -1.580872 -1.580876 h -1.62741 -1.627407 v -1.58087 -1.580873 h 3.254817 3.254818 v -6.323491 -6.323488 h 1.627406 1.627414 V 13.753215 12.08914 H 34.912187 33.284781 V 8.9273973 5.7656467 h 1.627406 1.627414 v 1.5808785 1.5808721 h 1.627407 1.627409 V 5.7656467 2.6039044 h 1.728979 1.728975 l -0.104652,6.3650914 c -0.05756,3.5008062 -0.10326,7.0561142 -0.101563,7.9006902 l 0.0031,1.535602 -3.211993,0.04529 -3.211989,0.04529 -0.04653,3.203347 -0.04653,3.20335 h 1.631109 1.631107 v -1.580867 -1.580876 h 1.713068 1.713059 v 1.580876 1.580873 h 1.627409 1.627412 v -1.580873 -1.580876 h 1.62741 1.62741 v 1.580876 1.580873 h -1.62741 -1.62741 v 1.580871 1.580868 h 1.62741 1.62741 v 6.323494 6.323488 h -1.62741 -1.62741 v 1.580873 1.58087 h 1.62741 1.62741 v 3.161744 3.161742 H 46.4818 43.233405 l -0.04925,-1.53927 -0.04926,-1.539276 -3.297645,-0.04518 -3.297642,-0.04527 v 1.584464 1.584471 h -1.62741 -1.62741 z m 9.935768,0 v -1.580871 h 1.627406 1.627415 V 39.130383 37.549504 H 44.847955 43.220549 V 35.96863 34.387764 h 1.627406 1.627415 v -3.161748 -3.161743 h -1.620987 -1.62098 l -0.04925,1.539274 -0.04926,1.539267 h -1.627406 -1.627409 l -0.04927,-1.539267 -0.04926,-1.539274 H 36.533161 33.28477 v 3.161743 3.161748 h 3.254815 3.254821 v 1.580866 1.580874 h -1.627409 -1.627412 v 1.580879 1.580864 h 1.627412 1.627409 v 1.580871 1.580879 h 1.713075 1.713065 z m -3.426132,-3.161735 v -1.580879 h 1.713069 1.713063 v 1.580879 1.580864 H 41.507486 39.794417 Z M 23.520327,35.96863 v -1.580866 h -1.62741 -1.627415 v 1.580866 1.580874 h 1.627415 1.62741 z M 7.2462294,31.226016 v -3.161743 h 3.2548186 3.254817 v 3.161743 3.161748 H 10.501048 7.2462294 Z m 45.7387716,0 v -3.161743 h 4.882229 4.882228 v 3.161743 3.161748 H 57.86723 52.985001 Z M 7.2462294,13.753215 V 2.6039044 H 18.638095 30.029963 V 13.753215 24.902529 H 18.638095 7.2462294 Z m 19.5289166,0 V 5.7656467 h -8.137051 -8.137047 v 7.9875683 7.987567 h 8.137047 8.137051 z m -13.019281,-0.0832 V 8.9274015 h 4.88223 4.882232 v 4.7426165 4.742618 h -4.882232 -4.88223 z m 39.229136,0.0832 V 2.6039044 H 64.376865 75.768736 V 13.753215 24.902529 H 64.376865 52.985001 Z m 19.528906,0 V 5.7656467 h -8.137042 -8.137042 v 7.9875683 7.987567 h 8.137042 8.137042 z m -13.019262,-0.0832 V 8.9274015 h 4.88222 4.882228 v 4.7426165 4.742618 h -4.882228 -4.88222 z M 43.220549,20.07671 v -1.497668 h 1.627406 1.627415 v 1.497668 1.49767 H 44.847955 43.220549 Z M 46.47537,10.508271 V 8.9274015 h 1.627405 1.62741 v 1.5808695 1.580873 h -1.62741 -1.627405 z"
     id="Beta.team" /><g
     inkscape:groupmode="layer"
     id="layer1"
     inkscape:label="Orange"
     style="display:inline"><rect
       style="fill:#ffc200;stroke-width:1.394;stroke-dasharray:none"
       id="rect10"
       width="22.998388"
       height="22.181417"
       x="7.198401"
       y="2.7122469" /><rect
       style="fill:#ffc200;stroke-width:1.394;stroke-dasharray:none"
       id="rect11"
       width="23.227671"
       height="22.430628"
       x="52.608963"
       y="2.6950133" /><rect
       style="fill:#ffc200;stroke-width:1.394;stroke-dasharray:none"
       id="rect12"
       width="23.093838"
       height="22.200964"
       x="7.0729675"
       y="46.523239" /></g><g
     inkscape:groupmode="layer"
     id="layer2"
     inkscape:label="White"
     style="display:inline"><rect
       style="fill:#ffffff;stroke-width:1.394;stroke-dasharray:none"
       id="rect13"
       width="16.361124"
       height="16.055529"
       x="10.584583"
       y="5.551724" /><rect
       style="fill:#ffffff;stroke-width:1.394;stroke-dasharray:none"
       id="rect14"
       width="16.035984"
       height="15.910722"
       x="56.002712"
       y="5.6432009" /><rect
       style="fill:#ffffff;stroke-width:1.394;stroke-dasharray:none"
       id="rect15"
       width="16.078623"
       height="15.876806"
       x="10.554175"
       y="49.661987" /></g><g
     inkscape:groupmode="layer"
     id="layer3"
     inkscape:label="Blue"><rect
       style="fill:#0066ff;stroke-width:1.394;stroke-dasharray:none"
       id="rect16"
       width="10.381733"
       height="10.052906"
       x="13.412505"
       y="8.7837772" /><rect
       style="fill:#0066ff;stroke-width:1.394;stroke-dasharray:none"
       id="rect17"
       width="9.8962164"
       height="9.4768028"
       x="59.237564"
       y="8.8892994" /><rect
       style="fill:#0066ff;stroke-width:1.394;stroke-dasharray:none"
       id="rect18"
       width="9.9965687"
       height="9.8713312"
       x="13.371696"
       y="52.792347" /></g></svg>
